<?xml version="1.0" encoding="UTF-8" standalone="no"?>
<!-- Created with Inkscape (http://www.inkscape.org/) -->

<svg
   xmlns:dc="http://purl.org/dc/elements/1.1/"
   xmlns:cc="http://creativecommons.org/ns#"
   xmlns:rdf="http://www.w3.org/1999/02/22-rdf-syntax-ns#"
   xmlns:svg="http://www.w3.org/2000/svg"
   xmlns="http://www.w3.org/2000/svg"
   xmlns:sodipodi="http://sodipodi.sourceforge.net/DTD/sodipodi-0.dtd"
   xmlns:inkscape="http://www.inkscape.org/namespaces/inkscape"
   width="210mm"
   height="297mm"
   viewBox="0 0 744.09448819 1052.3622047"
   id="svg2"
   version="1.1"
   inkscape:version="0.91 r13725"
   sodipodi:docname="madero.svg">
  <defs
     id="defs4" />
  <sodipodi:namedview
     id="base"
     pagecolor="#ffffff"
     bordercolor="#666666"
     borderopacity="1.0"
     inkscape:pageopacity="0.0"
     inkscape:pageshadow="2"
     inkscape:zoom="0.35"
     inkscape:cx="375"
     inkscape:cy="862.85714"
     inkscape:document-units="px"
     inkscape:current-layer="layer1"
     showgrid="false"
     inkscape:window-width="1855"
     inkscape:window-height="1056"
     inkscape:window-x="65"
     inkscape:window-y="24"
     inkscape:window-maximized="1" />
  <metadata
     id="metadata7">
    <rdf:RDF>
      <cc:Work
         rdf:about="">
        <dc:format>image/svg+xml</dc:format>
        <dc:type
           rdf:resource="http://purl.org/dc/dcmitype/StillImage" />
        <dc:title></dc:title>
      </cc:Work>
    </rdf:RDF>
  </metadata>
  <g
     inkscape:label="Capa 1"
     inkscape:groupmode="layer"
     id="layer1">
    <path
       style="fill:none;fill-rule:evenodd;stroke:#000000;stroke-width:1px;stroke-linecap:butt;stroke-linejoin:miter;stroke-opacity:1"
       d="m 97.142857,95.219348 c -3.809524,2.857142 -7.619047,5.714282 -11.428571,8.571432 -0.952381,1.90476 -1.351297,4.20844 -2.857143,5.71428 -1.505847,1.50585 -3.693981,2.18371 -5.714286,2.85714 -0.903508,0.30117 -2.183708,-0.67343 -2.857143,0 -0.673435,0.67344 0,1.90477 0,2.85715 -1.904762,0.95238 -3.69398,2.18371 -5.714285,2.85714 -2.710524,0.90351 -5.76977,-0.56033 -8.571429,0 -2.953208,0.59064 -5.649657,2.1267 -8.571429,2.85714 -0.923945,0.23099 -1.904761,0 -2.857142,0 -1.904762,0 -3.809524,0 -5.714286,0 -4.761905,0 -9.52381,0 -14.285714,0 -1.934907,0 -18.6983924,0.43387 -20.0000004,0 -1.2777532,-0.42591 -1.9047619,-1.90476 -2.8571429,-2.85714 -2.8571428,-0.95238 -5.64965717,-2.1267 -8.5714286,-2.85714 -5.7142857,-1.42857 0,2.85714 -8.5714281,0 -1.277754,-0.42592 -1.652466,-2.25481 -2.857143,-2.85715 -1.132834,-0.56641 -7.987325,0.58411 -8.571429,0 -1.505846,-1.50584 -1.351296,-4.20843 -2.857143,-5.71428 -1.34687,-1.34687 -4.367415,1.34687 -5.714285,0 -0.673435,-0.67344 0.673435,-2.18371 0,-2.85714 -1.505847,-1.50585 -3.942361,-1.67586 -5.714286,-2.85715 -1.120664,-0.74711 -1.652466,-2.254801 -2.857143,-2.85714 -0.851835,-0.425917 -2.183708,0.673435 -2.857143,0 -0.673435,-0.673435 0.673435,-2.183707 0,-2.857142 -1.34687,-1.34687 -4.010615,0.851835 -5.714286,0 -1.204677,-0.602339 -1.904761,-1.904762 -2.857142,-2.857143 -0.952381,-0.952381 -2.254805,-1.652466 -2.857143,-2.857143 -0.425918,-0.851836 0.673435,-2.183708 0,-2.857143 -0.673435,-0.673435 -2.064714,0.528286 -2.857143,0 -15.413524,-10.275682 1.967836,-0.889307 -8.571429,-11.428571 -4.856209,-4.856209 -12.286648,-6.572363 -17.142857,-11.428572 -1.505846,-1.505846 -1.153472,-4.436532 -2.857143,-5.714286 -2.409354,-1.807015 -5.775142,-1.738628 -8.571428,-2.857142 -1.977274,-0.79091 -3.942361,-1.67586 -5.714286,-2.857143 -1.12066,-0.747109 -1.57939,-2.431225 -2.85714,-2.857143 -1.53602,-0.512006 -9.00957,0 -11.42857,0 -0.95239,0 -1.90477,0 -2.85715,0 -0.95238,0 -2.1837,-0.673435 -2.85714,0 -3.01169,3.011693 -2.70259,8.416878 -5.71429,11.428571 -0.67343,0.673435 -1.90476,0 -2.85714,0 -0.95238,0 -2.18371,0.673435 -2.85714,0 -3.01169,-3.011693 -2.70259,-8.416878 -5.71429,-11.428571 -1.50584,-1.505847 -3.94236,-1.67586 -5.71428,-2.857143 -1.12067,-0.747109 -1.73648,-2.110034 -2.85715,-2.857143 -1.77192,-1.181283 -4.20843,-1.351296 -5.71428,-2.857143 -0.67344,-0.673435 0.42592,-2.005307 0,-2.857143 -5.94537,-11.890744 0.19724,3.054388 -5.71429,-2.857142 -0.67343,-0.673435 0,-1.904762 0,-2.857143 0,-0.952381 0,-1.904762 0,-2.857143 0,-3.809524 0,-7.619048 0,-11.428572 0,-1.904761 0.46198,-3.866395 0,-5.714285 -0.5165,-2.066005 -2.1837,-3.6939809 -2.85714,-5.714286 -0.61706,-1.8511903 0,-11.946571 0,-14.2857143 0,-0.9523809 0,-1.9047619 0,-2.8571427 0,-0.952381 -0.67344,-2.183708 0,-2.857143 0.67344,-0.673435 2.00531,0.425918 2.85714,0 1.20468,-0.602339 1.57939,-2.431225 2.85715,-2.857143 1.80701,-0.602338 3.80952,0 5.71428,0 2.85714,0 5.743,0.404061 8.57143,0 3.8873,-0.555329 7.53213,-2.370087 11.42857,-2.857143 3.78011,-0.472513 7.61905,0 11.42857,0 2.85715,0 5.76977,0.560332 8.57143,0 2.81823,-0.563646 13.564489,-7.850202 14.285716,-8.571428 0.673435,-0.673435 -0.425918,-2.005308 0,-2.857143 6.53801,-13.076021 -1.184206,12.124047 5.714285,-8.571429 0.655079,-1.965235 -0.842886,-6.885656 0,-8.571428 0.602339,-1.204677 2.254805,-1.652466 2.857143,-2.857143 1.142857,-2.285714 -1.142857,-6.285714 0,-8.571429 0.602339,-1.204677 2.431225,-1.579389 2.857143,-2.857143 0.435607,-1.30682 -0.635682,-10.157207 0,-11.428571 0.602339,-1.204677 2.431225,-1.57939 2.857143,-2.857143 1.204677,-3.614031 -1.204677,-7.81454 0,-11.428571 0.425918,-1.277753 2.254804,-1.652466 2.857143,-2.857143 0.425918,-0.851836 -0.301169,-1.953635 0,-2.857143 0.673435,-2.020305 2.183708,-3.693981 2.857143,-5.714286 0.602338,-1.807013 0,-3.809523 0,-5.714283 0,-2.85715 1.061116,-5.91864 0,-8.57143 -1.00043,-2.50108 -4.509609,-3.30493 -5.714286,-5.71429 -0.851835,-1.70367 0.851835,-4.01061 0,-5.71428 -1.714286,-3.42857 -6.857143,-5.14286 -8.571429,-8.57143 -0.425917,-0.85184 0.673435,-2.18371 0,-2.85714 -5.91153,-5.91153 0.231087,9.0336 -5.714285,-2.85715 -0.425918,-0.85183 0.673435,-2.1837 0,-2.85714 -0.673435,-0.67343 -2.183708,0.67344 -2.857143,0 -0.673435,-0.67343 0,-1.90476 0,-2.85714 0,-0.95238 -0.301169,-1.95364 0,-2.85715 0.673435,-2.0203 2.183708,-3.69398 2.857143,-5.71428 0.301169,-0.90351 -0.425918,-2.00531 0,-2.85714 0.602338,-1.20468 2.254804,-1.65247 2.857143,-2.85715 0.851835,-1.70367 -1.34687,-4.36741 0,-5.71428 0.673435,-0.67344 1.953635,0.30117 2.857142,0 4.040611,-1.34687 7.387962,-4.36742 11.428572,-5.71429 2.571428,-0.85714 6,0.85714 8.571428,0 2.555507,-0.85183 3.304932,-4.50961 5.714286,-5.71428 0.851836,-0.42592 1.904762,0 2.857143,0 1.904762,0 3.866395,0.46197 5.714286,0 2.066004,-0.5165 3.809524,-1.90477 5.714285,-2.85715 1.904762,-0.95238 4.20844,-1.35129 5.714286,-2.85714 1.505847,-1.50585 1.351296,-4.20844 2.857143,-5.71429 0.673435,-0.67343 2.328857,0.79243 2.857143,0 12.372592,-18.55888 -0.05667,-2.68713 2.857143,-11.42857 6.898492,-20.69547 -0.823725,4.5046 5.714285,-8.57143 1.570865,-3.14172 -2.75155,-5.76708 2.857143,-8.57142 0.851836,-0.42592 1.904762,0 2.857143,0 0.952381,0 1.904762,0 2.857143,0 3.809524,0 7.619048,0 11.4285714,0 6.6666667,0 13.3741085,-0.73621 19.9999996,0 5.381379,0.59793 14.582195,3.90835 20,5.71428 2.857143,0.95238 5.600713,2.36203 8.571429,2.85714 2.818268,0.46972 5.714286,0 8.571429,0 0.952381,0 2.183707,0.67344 2.857142,0 2.818507,-2.8185 -5.854505,-5.71428 2.857143,-5.71428 0.952381,0 2.183708,-0.67344 2.857143,0 1.34687,1.34687 -1.34687,4.36741 0,5.71428 0.673435,0.67344 2.183708,-0.67343 2.857143,0 1.505847,1.50585 1.153472,4.43654 2.857143,5.71429 2.409354,1.80702 5.877688,1.51027 8.571428,2.85714 4.375937,2.18797 2.234334,5.09148 5.714286,8.57143 0.183085,0.18309 10.896367,5.35948 11.428572,5.71429 1.120663,0.74711 1.904761,1.90476 2.857142,2.85714 0.952381,0.95238 2.254805,1.65247 2.857143,2.85714 0.0669,0.1338 0.02076,8.5403 0,8.57143 -1.494218,2.24133 -4.220067,3.47296 -5.714285,5.71429 -0.528286,0.79243 0.673435,2.18371 0,2.85714 -1.505847,1.50585 -4.533003,1.08522 -5.714286,2.85714 -1.056572,1.58486 0,3.80953 0,5.71429 0,0.95238 0.673435,2.18371 0,2.85714 -5.91153,5.91153 0.231086,-9.0336 -5.714286,2.85714 -0.425918,0.85184 0.301169,1.95364 0,2.85715 -0.673435,2.0203 -2.183708,3.69398 -2.857143,5.71428 -0.629524,1.88858 0,16.93476 0,20 0,1.49406 -0.37563,10.67731 0,11.42857 0.602339,1.20468 2.254805,1.65247 2.857143,2.85715 0.425918,0.85183 -0.673435,2.18371 0,2.85714 0.673435,0.67344 2.005308,-0.42592 2.857143,0 2.409354,1.20468 3.158779,4.862451 5.714286,5.714286 1.30682,0.435607 10.157207,-0.635682 11.428571,0 1.204677,0.602339 1.904762,1.904762 2.857143,2.857143 10.9698,10.969798 0.61582,-0.131293 11.42857,14.285714 3.27548,4.367305 3.37197,2.247981 8.57143,5.714286 5.66017,-0.285206 1.3513,4.208439 2.85714,5.714286 1.50585,1.505846 4.20844,1.351296 5.71429,2.857143 0.67343,0.673435 -0.42592,2.005307 0,2.857142 0.60234,1.204678 2.2548,1.652466 2.85714,2.857143 0.85184,1.703671 -1.34687,4.367416 0,5.714286 0.67344,0.673435 2.43123,-0.851835 2.85714,0 0.89443,1.788854 -0.89442,6.782574 0,8.571429 1.20468,2.409354 4.50961,3.304931 5.71429,5.714285 0.0307,0.06135 0.29573,19.11282 0,20 -0.42592,1.277753 -2.43123,1.57939 -2.85714,2.857143 -0.60234,1.807016 0.60234,3.90727 0,5.714286 -0.42592,1.277753 -1.90476,1.9047618 -2.85715,2.8571427 -0.95238,1.9047619 -2.1837,3.6939806 -2.85714,5.7142857 -0.60234,1.80701584 0,3.8095238 0,5.7142858 0,4.7619047 0,9.5238098 0,14.2857138 0,1.904762 0.85184,4.010615 0,5.714286 -0.42592,0.851836 -2.55597,-0.903508 -2.85714,0 -0.90351,2.710524 0,5.714286 0,8.571429 0,4.761904 0,9.523809 0,14.285714 0,0.952381 0,1.904762 0,2.857143 0,0.952381 0.42592,2.005307 0,2.857143 -0.60234,1.204677 -2.25481,1.652465 -2.85714,2.857143 -0.42592,0.851835 0.42591,2.005307 0,2.857142 -0.60234,1.204678 -2.25481,1.652466 -2.85715,2.857143 -1.14285,2.285715 1.14286,6.285715 0,8.571429 -1.20467,2.409354 -4.50961,3.304931 -5.71428,5.714286 -0.42592,0.851835 0.67343,2.183707 0,2.857142 -0.67344,0.673435 -2.18371,-0.673435 -2.85715,0 -0.67343,0.673435 0.67344,2.183708 0,2.857143 -0.67343,0.673435 -2.1837,-0.673435 -2.85714,0 -0.67343,0.673435 0.67344,2.183708 0,2.857143 -0.67343,0.673435 -2.18371,-0.673435 -2.85714,0 -0.67344,0.673435 0,1.904762 0,2.857143 -3.80953,2.857143 -7.61905,5.714286 -11.428573,8.571429 z"
       id="path3338"
       inkscape:connector-curvature="0" />
  </g>
</svg>
